<mxfile host="app.diagrams.net" agent="Mozilla/5.0 (X11; Linux x86_64) AppleWebKit/537.36 (KHTML, like Gecko) Chrome/128.0.0.0 Safari/537.36" version="24.7.12">
  <diagram name="Page-1" id="AztxHjsX5w5K2lV8P44H">
    <mxGraphModel dx="1434" dy="788" grid="1" gridSize="10" guides="1" tooltips="1" connect="1" arrows="1" fold="1" page="1" pageScale="1" pageWidth="827" pageHeight="1169" math="0" shadow="0">
      <root>
        <mxCell id="0" />
        <mxCell id="1" parent="0" />
        <mxCell id="gM0bE--oLbyn8xA-EAZ4-1" value="" style="edgeStyle=orthogonalEdgeStyle;rounded=1;orthogonalLoop=1;jettySize=auto;html=1;labelBackgroundColor=none;strokeColor=#E07A5F;fontColor=default;align=center;fontStyle=1" edge="1" parent="1" source="gM0bE--oLbyn8xA-EAZ4-2" target="gM0bE--oLbyn8xA-EAZ4-4">
          <mxGeometry relative="1" as="geometry" />
        </mxCell>
        <mxCell id="gM0bE--oLbyn8xA-EAZ4-2" value="START" style="ellipse;whiteSpace=wrap;html=1;rounded=1;labelBackgroundColor=none;fillColor=#F2CC8F;strokeColor=#E07A5F;fontColor=#393C56;align=center;fontStyle=1" vertex="1" parent="1">
          <mxGeometry x="354" y="118" width="120" height="80" as="geometry" />
        </mxCell>
        <mxCell id="gM0bE--oLbyn8xA-EAZ4-3" value="" style="edgeStyle=orthogonalEdgeStyle;rounded=1;orthogonalLoop=1;jettySize=auto;html=1;labelBackgroundColor=none;strokeColor=#E07A5F;fontColor=default;align=center;fontStyle=1" edge="1" parent="1" source="gM0bE--oLbyn8xA-EAZ4-4">
          <mxGeometry relative="1" as="geometry">
            <mxPoint x="414" y="398" as="targetPoint" />
          </mxGeometry>
        </mxCell>
        <mxCell id="gM0bE--oLbyn8xA-EAZ4-4" value="INPUT A, B" style="shape=parallelogram;perimeter=parallelogramPerimeter;whiteSpace=wrap;html=1;fixedSize=1;rounded=1;labelBackgroundColor=none;fillColor=#F2CC8F;strokeColor=#E07A5F;fontColor=#393C56;align=center;fontStyle=1" vertex="1" parent="1">
          <mxGeometry x="299" y="268" width="230" height="60" as="geometry" />
        </mxCell>
        <mxCell id="gM0bE--oLbyn8xA-EAZ4-9" value="END" style="ellipse;whiteSpace=wrap;html=1;rounded=1;labelBackgroundColor=none;fillColor=#F2CC8F;strokeColor=#E07A5F;fontColor=#393C56;align=center;fontStyle=1" vertex="1" parent="1">
          <mxGeometry x="354" y="628" width="120" height="80" as="geometry" />
        </mxCell>
        <mxCell id="gM0bE--oLbyn8xA-EAZ4-10" value="&lt;h1 style=&quot;margin-top: 0px;&quot;&gt;Calculate Max of 2 Numbers&lt;br&gt;&lt;/h1&gt;" style="text;html=1;whiteSpace=wrap;overflow=hidden;rounded=1;labelBackgroundColor=none;fontColor=#393C56;align=center;" vertex="1" parent="1">
          <mxGeometry x="41" y="40" width="760" height="50" as="geometry" />
        </mxCell>
        <mxCell id="gM0bE--oLbyn8xA-EAZ4-13" value="" style="edgeStyle=orthogonalEdgeStyle;rounded=0;orthogonalLoop=1;jettySize=auto;html=1;strokeColor=#E07A5F;fontColor=#393C56;fillColor=#F2CC8F;align=center;fontStyle=1" edge="1" parent="1" source="gM0bE--oLbyn8xA-EAZ4-11" target="gM0bE--oLbyn8xA-EAZ4-12">
          <mxGeometry relative="1" as="geometry" />
        </mxCell>
        <mxCell id="gM0bE--oLbyn8xA-EAZ4-15" value="" style="edgeStyle=orthogonalEdgeStyle;rounded=0;orthogonalLoop=1;jettySize=auto;html=1;strokeColor=#E07A5F;fontColor=#393C56;fillColor=#F2CC8F;align=center;fontStyle=1" edge="1" parent="1" source="gM0bE--oLbyn8xA-EAZ4-11" target="gM0bE--oLbyn8xA-EAZ4-14">
          <mxGeometry relative="1" as="geometry" />
        </mxCell>
        <mxCell id="gM0bE--oLbyn8xA-EAZ4-11" value="IF A &amp;gt; B" style="rhombus;whiteSpace=wrap;html=1;fillColor=#F2CC8F;strokeColor=#E07A5F;labelBackgroundColor=none;fontColor=#393C56;align=center;fontStyle=1" vertex="1" parent="1">
          <mxGeometry x="374" y="400" width="80" height="80" as="geometry" />
        </mxCell>
        <mxCell id="gM0bE--oLbyn8xA-EAZ4-18" style="edgeStyle=orthogonalEdgeStyle;rounded=0;orthogonalLoop=1;jettySize=auto;html=1;strokeColor=#E07A5F;fontColor=#393C56;fillColor=#F2CC8F;align=center;fontStyle=1" edge="1" parent="1" target="gM0bE--oLbyn8xA-EAZ4-9">
          <mxGeometry relative="1" as="geometry">
            <mxPoint x="269" y="578" as="sourcePoint" />
            <mxPoint x="363" y="668" as="targetPoint" />
            <Array as="points">
              <mxPoint x="269" y="668" />
            </Array>
          </mxGeometry>
        </mxCell>
        <mxCell id="gM0bE--oLbyn8xA-EAZ4-12" value="OUTPUT A IS MAXIMUM" style="shape=parallelogram;perimeter=parallelogramPerimeter;whiteSpace=wrap;html=1;fixedSize=1;fillColor=#F2CC8F;strokeColor=#E07A5F;fontColor=#393C56;labelBackgroundColor=none;align=center;fontStyle=1" vertex="1" parent="1">
          <mxGeometry x="210" y="518" width="120" height="60" as="geometry" />
        </mxCell>
        <mxCell id="gM0bE--oLbyn8xA-EAZ4-19" style="edgeStyle=orthogonalEdgeStyle;rounded=0;orthogonalLoop=1;jettySize=auto;html=1;strokeColor=#E07A5F;fontColor=#393C56;fillColor=#F2CC8F;align=center;fontStyle=1" edge="1" parent="1" target="gM0bE--oLbyn8xA-EAZ4-9">
          <mxGeometry relative="1" as="geometry">
            <mxPoint x="572" y="578" as="sourcePoint" />
            <mxPoint x="486" y="668" as="targetPoint" />
            <Array as="points">
              <mxPoint x="572" y="668" />
            </Array>
          </mxGeometry>
        </mxCell>
        <mxCell id="gM0bE--oLbyn8xA-EAZ4-14" value="OUTPUT B&lt;span style=&quot;background-color: initial;&quot;&gt;&amp;nbsp;IS MAXIMUM&lt;/span&gt;" style="shape=parallelogram;perimeter=parallelogramPerimeter;whiteSpace=wrap;html=1;fixedSize=1;fillColor=#F2CC8F;strokeColor=#E07A5F;fontColor=#393C56;labelBackgroundColor=none;align=center;fontStyle=1" vertex="1" parent="1">
          <mxGeometry x="510" y="518" width="120" height="60" as="geometry" />
        </mxCell>
        <mxCell id="gM0bE--oLbyn8xA-EAZ4-20" value="YES" style="text;html=1;align=center;verticalAlign=middle;whiteSpace=wrap;rounded=0;fontColor=#393C56;fontStyle=1" vertex="1" parent="1">
          <mxGeometry x="294" y="410" width="60" height="30" as="geometry" />
        </mxCell>
        <mxCell id="gM0bE--oLbyn8xA-EAZ4-21" value="NO" style="text;html=1;align=center;verticalAlign=middle;whiteSpace=wrap;rounded=0;fontColor=#393C56;fontStyle=1" vertex="1" parent="1">
          <mxGeometry x="490" y="410" width="60" height="30" as="geometry" />
        </mxCell>
      </root>
    </mxGraphModel>
  </diagram>
</mxfile>
